<?xml version="1.0" encoding="UTF-8" standalone="no"?>
<!-- Created with Inkscape (http://www.inkscape.org/) -->

<svg
   version="1.1"
   id="svg2"
   xml:space="preserve"
   width="5000"
   height="1500"
   viewBox="0 0 5000.0002 1500"
   sodipodi:docname="logo1.svg"
   inkscape:version="1.1 (ce6663b3b7, 2021-05-25)"
   xmlns:inkscape="http://www.inkscape.org/namespaces/inkscape"
   xmlns:sodipodi="http://sodipodi.sourceforge.net/DTD/sodipodi-0.dtd"
   xmlns="http://www.w3.org/2000/svg"
   xmlns:svg="http://www.w3.org/2000/svg"><defs
     id="defs6"><clipPath
       clipPathUnits="userSpaceOnUse"
       id="clipPath16"><path
         d="M 0,824.949 H 904.16 V 0 H 0 Z"
         id="path14" /></clipPath></defs><sodipodi:namedview
     id="namedview4"
     pagecolor="#ffffff"
     bordercolor="#111111"
     borderopacity="1"
     inkscape:pageshadow="0"
     inkscape:pageopacity="0"
     inkscape:pagecheckerboard="1"
     showgrid="false"
     inkscape:zoom="0.1330222"
     inkscape:cx="1597.4777"
     inkscape:cy="2439.4424"
     inkscape:window-width="1920"
     inkscape:window-height="1016"
     inkscape:window-x="0"
     inkscape:window-y="27"
     inkscape:window-maximized="1"
     inkscape:current-layer="g8"
     width="5000px" /><g
     id="g8"
     inkscape:groupmode="layer"
     inkscape:label="usairim"
     transform="matrix(1.3333333,0,0,-1.3333333,0,1099.932)"><g
       id="g10"
       inkscape:export-filename="/home/aunps/Documents/logo.png"
       inkscape:export-xdpi="115.18055"
       inkscape:export-ydpi="115.18055"
       transform="matrix(5.8491273,0,0,5.8491273,-762.15501,-2144.8302)"><g
         id="g12"
         clip-path="url(#clipPath16)"><g
           id="g18"
           transform="translate(443.7699,483.7302)"><path
             d="m 0,0 c 6.05,2.004 12.113,3.976 18.158,6.02 1.822,0.616 3.716,-0.771 3.621,-2.693 -0.11,-2.254 -0.143,-4.51 -0.106,-6.771 0.291,-37.509 -0.426,-75.046 0.315,-112.542 0.031,-1.537 -1.202,-2.798 -2.74,-2.798 H 0.851 c -1.521,0 -2.751,1.232 -2.75,2.752 0.026,37.802 0.012,75.616 0.012,113.418 0,1.186 0.76,2.241 1.887,2.614"
             style="fill:#692cff;fill-opacity:1;fill-rule:nonzero;stroke:none"
             id="path20" /></g><g
           id="g22"
           transform="translate(490.3686,447.8884)"><path
             d="m 0,0 c 6.117,1.953 12.198,4.033 18.311,6.023 1.775,0.579 3.602,-0.755 3.603,-2.624 0.021,-27.866 -0.04,-55.732 0.021,-83.597 0.003,-1.523 -1.23,-2.761 -2.751,-2.759 -6.026,0.01 -12.06,0.073 -18.094,-0.039 -1.537,-0.028 -2.804,1.195 -2.807,2.733 -0.062,25.869 0.353,51.749 -0.185,77.605 C -1.928,-1.445 -1.155,-0.368 0,0"
             style="fill:#692cff;fill-opacity:1;fill-rule:nonzero;stroke:none"
             id="path24" /></g><g
           id="g26"
           transform="translate(372.5756,428.7224)"><path
             d="m 0,0 c -10.065,-2.207 -17.477,-12.601 -16.135,-22.845 0.925,-9.512 9.097,-17.609 18.595,-18.534 12.168,-1.745 24.142,9.126 23.381,21.457 C 25.931,-7.083 12.421,3.399 0,0 m 27.647,24.365 h 17.765 c 1.52,0 2.751,-1.231 2.751,-2.751 v -82.475 c 0,-1.52 -1.229,-2.753 -2.749,-2.754 -6.027,-0.005 -12.063,0.01 -18.101,-0.004 -1.425,-0.003 -2.617,1.09 -2.744,2.511 -0.026,0.299 -0.05,0.574 -0.07,0.792 -18.848,-9.812 -44.033,-3.564 -56.007,14.002 -9.931,13.688 -10.886,33.058 -2.52,47.715 7.679,13.973 23.411,23.069 39.366,22.636 6.889,-0.03 13.555,-2.088 19.817,-4.802 l -0.24,2.062 c -0.189,1.634 1.088,3.068 2.732,3.068"
             style="fill:#692cff;fill-opacity:1;fill-rule:nonzero;stroke:none"
             id="path28" /></g><g
           id="g30"
           transform="translate(532.2309,429.5271)"><path
             d="m 0,0 c 1.7,12.854 13.137,23.649 26.125,24.351 10.59,0.658 21.217,0.231 31.836,0.298 1.527,0.009 2.773,-1.216 2.773,-2.744 V 2.806 c 0,-1.512 -1.218,-2.75 -2.729,-2.759 -10.114,-0.064 -20.248,0.298 -30.344,-0.181 -3.952,-0.402 -4.682,-6.56 -0.955,-7.903 2.73,-0.655 5.577,-0.372 8.365,-0.477 9.693,0.328 19.132,-5.249 24.098,-13.48 5.531,-8.678 5.621,-20.428 0.343,-29.256 -4.862,-8.618 -14.509,-14.195 -24.396,-14.271 -11.416,-0.041 -22.845,-0.005 -34.276,0 -1.518,0.001 -2.746,1.23 -2.744,2.749 0.009,6.361 0.009,12.73 0,19.091 -0.002,1.514 1.217,2.75 2.73,2.759 11.693,0.073 23.406,-0.233 35.081,0.14 4.368,0.88 3.533,7.813 -0.836,7.888 -6.306,0.328 -12.927,-0.373 -18.743,2.624 C 5.07,-25.155 -2.103,-12.271 0,0"
             style="fill:#692cff;fill-opacity:1;fill-rule:nonzero;stroke:none"
             id="path32" /></g><g
           id="g34"
           transform="translate(614.3549,453.0867)"><path
             d="m 0,0 c 5.988,-0.002 11.982,-0.009 17.971,0.007 1.517,0.004 2.75,-1.222 2.758,-2.739 0.003,-0.61 0.005,-1.181 0.005,-1.591 13.362,5.561 29.495,2.445 40.037,-7.411 8.158,7.515 19.549,11.452 30.583,9.841 13.182,-1.521 25.067,-10.662 30.047,-22.933 2.684,-6.129 2.953,-12.929 2.983,-19.52 -0.042,-13.621 -0.006,-27.257 -0.013,-40.88 -10e-4,-1.519 -1.234,-2.751 -2.754,-2.751 h -17.985 c -1.519,0 -2.752,1.231 -2.755,2.749 -0.025,15.144 0.074,30.288 -0.038,45.43 0.179,6.576 -4.444,12.899 -10.915,14.345 -8.232,2.386 -17.313,-4.533 -17.342,-13.063 -0.099,-15.574 0.002,-31.136 -0.024,-46.71 -0.002,-1.518 -1.238,-2.751 -2.756,-2.751 H 51.827 c -1.517,0 -2.752,1.229 -2.757,2.747 -0.049,15.546 0.064,31.093 -0.049,46.64 -0.104,6.77 -5.785,12.735 -12.451,13.45 -7.858,1.193 -15.596,-5.517 -15.701,-13.42 -0.324,-15.549 -0.05,-31.125 -0.131,-46.677 -0.008,-1.515 -1.243,-2.74 -2.758,-2.74 H 0 c -1.519,0 -2.751,1.233 -2.751,2.751 V -2.751 C -2.751,-1.231 -1.52,0.001 0,0"
             style="fill:#692cff;fill-opacity:1;fill-rule:nonzero;stroke:none"
             id="path36" /></g><g
           id="g38"
           transform="translate(171.227,428.6033)"><path
             d="m 0,0 c -10.423,-2.476 -17.774,-13.793 -15.373,-24.32 1.908,-11.676 14.971,-19.952 26.304,-16.254 10.929,2.789 18.012,15.359 14.478,26.139 C 22.621,-3.788 10.558,2.997 0,0 m -32.074,3.937 c 10.02,16.088 31.001,23.947 49.178,18.654 18.281,-4.623 32.119,-22.174 32.596,-40.977 0.029,-22.138 -0.041,-44.276 0.024,-66.415 0.003,-1.184 -0.752,-2.237 -1.875,-2.614 -6,-2.011 -12.001,-4.019 -18.017,-5.998 -1.781,-0.585 -3.615,0.747 -3.614,2.622 0.006,10.359 -0.015,20.709 0.011,31.071 -8.32,-3.967 -17.745,-6.218 -26.959,-4.713 -16.552,2.148 -31.434,14.375 -36.369,30.375 -4.011,12.585 -2.252,26.915 5.025,37.995"
             style="fill:#692cff;fill-opacity:1;fill-rule:nonzero;stroke:none"
             id="path40" /></g><g
           id="g42"
           transform="translate(242.3022,451.9587)"><path
             d="m 0,0 c 5.878,0.009 11.757,0.009 17.643,0 1.517,-0.002 2.755,-1.232 2.759,-2.749 0.046,-15.477 -0.214,-30.976 0.138,-46.448 0.03,-8.007 6.964,-15.433 15.106,-15.344 8.439,-0.686 16.178,6.89 16.044,15.27 0.014,15.5 -0.011,31.015 -0.002,46.531 10e-4,1.518 1.234,2.751 2.753,2.751 h 17.98 c 1.52,0 2.749,-1.235 2.745,-2.756 -0.043,-16.482 0.146,-32.951 -0.095,-49.435 -1.073,-19.877 -19.519,-36.726 -39.44,-35.846 -19.579,-0.343 -37.413,16.418 -38.337,35.951 -0.085,16.439 -0.01,32.879 -0.039,49.318 C -2.748,-1.237 -1.521,-0.002 0,0"
             style="fill:#692cff;fill-opacity:1;fill-rule:nonzero;stroke:none"
             id="path44" /></g><g
           id="g46"
           transform="translate(772.1342,376.282)"><path
             d="m 0,0 c 0,-6.23 -5.051,-11.281 -11.281,-11.281 -6.231,0 -11.281,5.051 -11.281,11.281 0,6.23 5.05,11.281 11.281,11.281 C -5.051,11.281 0,6.23 0,0"
             style="fill:#692cff;fill-opacity:1;fill-rule:nonzero;stroke:none"
             id="path48" /></g></g></g></g></svg>
